<?xml version="1.0" standalone="no"?>
<!DOCTYPE svg PUBLIC "-//W3C//DTD SVG 20010904//EN"
 "http://www.w3.org/TR/2001/REC-SVG-20010904/DTD/svg10.dtd">
<svg version="1.0" xmlns="http://www.w3.org/2000/svg"
 width="450.000000pt" height="263.000000pt" viewBox="0 0 450.000000 263.000000"
 preserveAspectRatio="xMidYMid meet">
<metadata>
Created by potrace 1.10, written by Peter Selinger 2001-2011
</metadata>
<g transform="translate(0.000000,263.000000) scale(0.100000,-0.100000)"
fill="#ffffff" stroke="none">
<path d="M3505 2571 c-264 -49 -491 -139 -685 -272 -290 -198 -466 -430 -570
-749 -52 -159 -65 -254 -64 -455 0 -146 4 -186 26 -281 86 -367 305 -626 637
-750 142 -53 216 -64 442 -64 175 0 218 3 324 25 67 13 162 38 211 55 110 39
279 121 328 161 l36 30 0 125 c0 68 -3 124 -6 124 -4 0 -46 -15 -94 -34 -428
-170 -865 -105 -1084 160 -197 239 -238 667 -96 1007 138 332 425 541 775 564
154 10 374 -33 535 -104 30 -13 64 -22 75 -19 16 4 33 44 87 207 37 112 66
204 65 205 -7 7 -132 36 -237 55 -168 31 -562 36 -705 10z"/>
<path d="M350 2543 c-1 -10 -65 -578 -144 -1263 -79 -685 -140 -1248 -136
-1253 3 -4 141 -6 305 -5 l299 3 48 420 c26 231 54 486 64 567 l17 148 395 2
396 3 48 165 c26 91 48 168 48 173 0 4 -191 7 -425 7 l-424 0 4 28 c3 15 18
149 35 297 17 149 33 287 36 308 l6 37 487 0 488 0 52 180 c28 98 51 184 51
190 0 7 -260 10 -825 10 -779 0 -825 -1 -825 -17z"/>
</g>
</svg>
